<?xml version="1.0" encoding="UTF-8" standalone="no"?>
<!-- Created with Inkscape (http://www.inkscape.org/) -->

<svg
   xmlns:dc="http://purl.org/dc/elements/1.1/"
   xmlns:cc="http://creativecommons.org/ns#"
   xmlns:rdf="http://www.w3.org/1999/02/22-rdf-syntax-ns#"
   xmlns:svg="http://www.w3.org/2000/svg"
   xmlns="http://www.w3.org/2000/svg"
   xmlns:sodipodi="http://sodipodi.sourceforge.net/DTD/sodipodi-0.dtd"
   xmlns:inkscape="http://www.inkscape.org/namespaces/inkscape"
   width="64"
   height="64"
   id="svg3352"
   version="1.1"
   inkscape:version="0.91 r13725"
   viewBox="0 0 64 64"
   sodipodi:docname="CodeIco.svg">
  <defs
     id="defs3354" />
  <sodipodi:namedview
     id="base"
     pagecolor="#ffffff"
     bordercolor="#666666"
     borderopacity="1.0"
     inkscape:pageopacity="0.0"
     inkscape:pageshadow="2"
     inkscape:zoom="6.3"
     inkscape:cx="66.460993"
     inkscape:cy="32.593896"
     inkscape:current-layer="layer1"
     showgrid="true"
     inkscape:document-units="px"
     inkscape:grid-bbox="true"
     inkscape:window-width="1366"
     inkscape:window-height="747"
     inkscape:window-x="0"
     inkscape:window-y="21"
     inkscape:window-maximized="1">
    <inkscape:grid
       type="xygrid"
       id="grid3362"
       spacingx="0.8"
       spacingy="0.8" />
  </sodipodi:namedview>
  <metadata
     id="metadata3357">
    <rdf:RDF>
      <cc:Work
         rdf:about="">
        <dc:format>image/svg+xml</dc:format>
        <dc:type
           rdf:resource="http://purl.org/dc/dcmitype/StillImage" />
        <dc:title></dc:title>
      </cc:Work>
    </rdf:RDF>
  </metadata>
  <g
     id="layer1"
     inkscape:label="Layer 1"
     inkscape:groupmode="layer">
    <flowRoot
       xml:space="preserve"
       id="flowRoot3364"
       style="fill:black;stroke:none;stroke-opacity:1;stroke-width:1px;stroke-linejoin:miter;stroke-linecap:butt;fill-opacity:1;font-family:sans-serif;font-style:normal;font-weight:normal;font-size:40px;line-height:125%;letter-spacing:0px;word-spacing:0px"><flowRegion
         id="flowRegion3366"><rect
           id="rect3368"
           width="64"
           height="12"
           x="0"
           y="0" /></flowRegion><flowPara
         id="flowPara3370"></flowPara></flowRoot>    <g
       transform="scale(1.001497,0.99850527)"
       style="font-style:normal;font-weight:normal;font-size:15.00796795px;line-height:116.99999571%;font-family:sans-serif;letter-spacing:-1.52080727px;word-spacing:0px;fill:#99cc33;fill-opacity:1;stroke:none;stroke-width:1px;stroke-linecap:butt;stroke-linejoin:miter;stroke-opacity:1"
       id="text3372">
      <path
         d="m 3.8288454,1.205405 q -1.143185,0 -1.7221057,1.1285288 -0.5715925,1.1212008 -0.5715925,3.3782585 0,2.2497295 0.5715925,3.3782584 0.5789207,1.1212003 1.7221057,1.1212003 1.1505132,0 1.7221057,-1.1212003 0.5789207,-1.1285289 0.5789207,-3.3782584 0,-2.2570577 -0.5789207,-3.3782585 Q 4.9793586,1.205405 3.8288454,1.205405 Z m 0,-1.17249749 q 1.8393555,0 2.8066659,1.45829379 0.9746386,1.4509656 0.9746386,4.220991 0,2.7626972 -0.9746386,4.2209909 -0.9673104,1.4509658 -2.8066659,1.4509658 -1.8393554,0 -2.8139939,-1.4509658 -0.96731048,-1.4582937 -0.96731048,-4.2209909 0,-2.7700254 0.96731048,-4.220991 Q 1.98949,0.03290751 3.8288454,0.03290751 Z"
         style=""
         id="path3431" />
      <path
         d="m 8.9546336,9.9258551 2.4182764,0 0,-8.3467165 -2.6307916,0.5276239 0,-1.34837217 2.6161346,-0.52762387 1.480279,0 0,9.69508864 2.418276,0 0,1.2457789 -6.3021744,0 0,-1.2457789 z"
         style=""
         id="path3433" />
      <path
         d="m 19.898941,1.205405 q -1.143186,0 -1.722106,1.1285288 -0.571593,1.1212008 -0.571593,3.3782585 0,2.2497295 0.571593,3.3782584 0.57892,1.1212003 1.722106,1.1212003 1.150513,0 1.722105,-1.1212003 0.578921,-1.1285289 0.578921,-3.3782584 0,-2.2570577 -0.578921,-3.3782585 Q 21.049454,1.205405 19.898941,1.205405 Z m 0,-1.17249749 q 1.839355,0 2.806665,1.45829379 0.974639,1.4509656 0.974639,4.220991 0,2.7626972 -0.974639,4.2209909 -0.96731,1.4509658 -2.806665,1.4509658 -1.839356,0 -2.813994,-1.4509658 -0.967311,-1.4582937 -0.967311,-4.2209909 0,-2.7700254 0.967311,-4.220991 0.974638,-1.45829379 2.813994,-1.45829379 z"
         style=""
         id="path3435" />
      <path
         d="m 27.933988,1.205405 q -1.143185,0 -1.722106,1.1285288 -0.571592,1.1212008 -0.571592,3.3782585 0,2.2497295 0.571592,3.3782584 0.578921,1.1212003 1.722106,1.1212003 1.150513,0 1.722106,-1.1212003 0.57892,-1.1285289 0.57892,-3.3782584 0,-2.2570577 -0.57892,-3.3782585 Q 29.084501,1.205405 27.933988,1.205405 Z m 0,-1.17249749 q 1.839355,0 2.806666,1.45829379 0.974638,1.4509656 0.974638,4.220991 0,2.7626972 -0.974638,4.2209909 -0.967311,1.4509658 -2.806666,1.4509658 -1.839355,0 -2.813994,-1.4509658 -0.96731,-1.4582937 -0.96731,-4.2209909 0,-2.7700254 0.96731,-4.220991 0.974639,-1.45829379 2.813994,-1.45829379 z"
         style=""
         id="path3437" />
      <path
         d="m 35.969036,1.205405 q -1.143185,0 -1.722106,1.1285288 -0.571593,1.1212008 -0.571593,3.3782585 0,2.2497295 0.571593,3.3782584 0.578921,1.1212003 1.722106,1.1212003 1.150513,0 1.722105,-1.1212003 0.578921,-1.1285289 0.578921,-3.3782584 0,-2.2570577 -0.578921,-3.3782585 Q 37.119549,1.205405 35.969036,1.205405 Z m 0,-1.17249749 q 1.839355,0 2.806665,1.45829379 0.974639,1.4509656 0.974639,4.220991 0,2.7626972 -0.974639,4.2209909 -0.96731,1.4509658 -2.806665,1.4509658 -1.839356,0 -2.813994,-1.4509658 -0.967311,-1.4582937 -0.967311,-4.2209909 0,-2.7700254 0.967311,-4.220991 0.974638,-1.45829379 2.813994,-1.45829379 z"
         style=""
         id="path3439" />
      <path
         d="m 44.004085,1.205405 q -1.143185,0 -1.722106,1.1285288 -0.571592,1.1212008 -0.571592,3.3782585 0,2.2497295 0.571592,3.3782584 0.578921,1.1212003 1.722106,1.1212003 1.150513,0 1.722106,-1.1212003 0.57892,-1.1285289 0.57892,-3.3782584 0,-2.2570577 -0.57892,-3.3782585 Q 45.154598,1.205405 44.004085,1.205405 Z m 0,-1.17249749 q 1.839355,0 2.806666,1.45829379 0.974638,1.4509656 0.974638,4.220991 0,2.7626972 -0.974638,4.2209909 -0.967311,1.4509658 -2.806666,1.4509658 -1.839355,0 -2.813994,-1.4509658 -0.96731,-1.4582937 -0.96731,-4.2209909 0,-2.7700254 0.96731,-4.220991 0.974639,-1.45829379 2.813994,-1.45829379 z"
         style=""
         id="path3441" />
      <path
         d="m 49.129871,9.9258551 2.418276,0 0,-8.3467165 -2.630791,0.5276239 0,-1.34837217 2.616135,-0.52762387 1.480278,0 0,9.69508864 2.418276,0 0,1.2457789 -6.302174,0 0,-1.2457789 z"
         style=""
         id="path3443" />
      <path
         d="m 57.164917,9.9258551 2.418276,0 0,-8.3467165 -2.630791,0.5276239 0,-1.34837217 2.616135,-0.52762387 1.480278,0 0,9.69508864 2.418276,0 0,1.2457789 -6.302174,0 0,-1.2457789 z"
         style=""
         id="path3445" />
      <path
         d="m 3.8288454,18.764727 q -1.143185,0 -1.7221057,1.128529 -0.5715925,1.1212 -0.5715925,3.378258 0,2.24973 0.5715925,3.378259 0.5789207,1.1212 1.7221057,1.1212 1.1505132,0 1.7221057,-1.1212 0.5789207,-1.128529 0.5789207,-3.378259 0,-2.257058 -0.5789207,-3.378258 -0.5715925,-1.128529 -1.7221057,-1.128529 z m 0,-1.172498 q 1.8393555,0 2.8066659,1.458294 0.9746386,1.450966 0.9746386,4.220991 0,2.762697 -0.9746386,4.220991 -0.9673104,1.450966 -2.8066659,1.450966 -1.8393554,0 -2.8139939,-1.450966 -0.96731048,-1.458294 -0.96731048,-4.220991 0,-2.770025 0.96731048,-4.220991 0.9746385,-1.458294 2.8139939,-1.458294 z"
         style=""
         id="path3447" />
      <path
         d="m 8.9546336,27.485177 2.4182764,0 0,-8.346717 -2.6307916,0.527624 0,-1.348372 2.6161346,-0.527624 1.480279,0 0,9.695089 2.418276,0 0,1.245779 -6.3021744,0 0,-1.245779 z"
         style=""
         id="path3449" />
      <path
         d="m 16.989681,27.485177 2.418276,0 0,-8.346717 -2.630791,0.527624 0,-1.348372 2.616135,-0.527624 1.480278,0 0,9.695089 2.418276,0 0,1.245779 -6.302174,0 0,-1.245779 z"
         style=""
         id="path3451" />
      <path
         d="m 27.933988,18.764727 q -1.143185,0 -1.722106,1.128529 -0.571592,1.1212 -0.571592,3.378258 0,2.24973 0.571592,3.378259 0.578921,1.1212 1.722106,1.1212 1.150513,0 1.722106,-1.1212 0.57892,-1.128529 0.57892,-3.378259 0,-2.257058 -0.57892,-3.378258 -0.571593,-1.128529 -1.722106,-1.128529 z m 0,-1.172498 q 1.839355,0 2.806666,1.458294 0.974638,1.450966 0.974638,4.220991 0,2.762697 -0.974638,4.220991 -0.967311,1.450966 -2.806666,1.450966 -1.839355,0 -2.813994,-1.450966 -0.96731,-1.458294 -0.96731,-4.220991 0,-2.770025 0.96731,-4.220991 0.974639,-1.458294 2.813994,-1.458294 z"
         style=""
         id="path3453" />
      <path
         d="m 33.059776,27.485177 2.418276,0 0,-8.346717 -2.630791,0.527624 0,-1.348372 2.616135,-0.527624 1.480278,0 0,9.695089 2.418276,0 0,1.245779 -6.302174,0 0,-1.245779 z"
         style=""
         id="path3455" />
      <path
         d="m 41.094826,27.485177 2.418276,0 0,-8.346717 -2.630792,0.527624 0,-1.348372 2.616135,-0.527624 1.480279,0 0,9.695089 2.418276,0 0,1.245779 -6.302174,0 0,-1.245779 z"
         style=""
         id="path3457" />
      <path
         d="m 49.129871,27.485177 2.418276,0 0,-8.346717 -2.630791,0.527624 0,-1.348372 2.616135,-0.527624 1.480278,0 0,9.695089 2.418276,0 0,1.245779 -6.302174,0 0,-1.245779 z"
         style=""
         id="path3459" />
      <path
         d="m 57.164917,27.485177 2.418276,0 0,-8.346717 -2.630791,0.527624 0,-1.348372 2.616135,-0.527624 1.480278,0 0,9.695089 2.418276,0 0,1.245779 -6.302174,0 0,-1.245779 z"
         style=""
         id="path3461" />
      <path
         d="m 3.8288454,36.324049 q -1.143185,0 -1.7221057,1.128529 -0.5715925,1.1212 -0.5715925,3.378258 0,2.24973 0.5715925,3.378258 0.5789207,1.121201 1.7221057,1.121201 1.1505132,0 1.7221057,-1.121201 0.5789207,-1.128528 0.5789207,-3.378258 0,-2.257058 -0.5789207,-3.378258 -0.5715925,-1.128529 -1.7221057,-1.128529 z m 0,-1.172498 q 1.8393555,0 2.8066659,1.458294 0.9746386,1.450966 0.9746386,4.220991 0,2.762697 -0.9746386,4.220991 -0.9673104,1.450966 -2.8066659,1.450966 -1.8393554,0 -2.8139939,-1.450966 -0.96731048,-1.458294 -0.96731048,-4.220991 0,-2.770025 0.96731048,-4.220991 0.9746385,-1.458294 2.8139939,-1.458294 z"
         style=""
         id="path3463" />
      <path
         d="m 8.9546336,45.044499 2.4182764,0 0,-8.346717 -2.6307916,0.527624 0,-1.348372 2.6161346,-0.527624 1.480279,0 0,9.695089 2.418276,0 0,1.245778 -6.3021744,0 0,-1.245778 z"
         style=""
         id="path3465" />
      <path
         d="m 16.989681,45.044499 2.418276,0 0,-8.346717 -2.630791,0.527624 0,-1.348372 2.616135,-0.527624 1.480278,0 0,9.695089 2.418276,0 0,1.245778 -6.302174,0 0,-1.245778 z"
         style=""
         id="path3467" />
      <path
         d="m 27.933988,36.324049 q -1.143185,0 -1.722106,1.128529 -0.571592,1.1212 -0.571592,3.378258 0,2.24973 0.571592,3.378258 0.578921,1.121201 1.722106,1.121201 1.150513,0 1.722106,-1.121201 0.57892,-1.128528 0.57892,-3.378258 0,-2.257058 -0.57892,-3.378258 -0.571593,-1.128529 -1.722106,-1.128529 z m 0,-1.172498 q 1.839355,0 2.806666,1.458294 0.974638,1.450966 0.974638,4.220991 0,2.762697 -0.974638,4.220991 -0.967311,1.450966 -2.806666,1.450966 -1.839355,0 -2.813994,-1.450966 -0.96731,-1.458294 -0.96731,-4.220991 0,-2.770025 0.96731,-4.220991 0.974639,-1.458294 2.813994,-1.458294 z"
         style=""
         id="path3469" />
      <path
         d="m 35.969036,36.324049 q -1.143185,0 -1.722106,1.128529 -0.571593,1.1212 -0.571593,3.378258 0,2.24973 0.571593,3.378258 0.578921,1.121201 1.722106,1.121201 1.150513,0 1.722105,-1.121201 0.578921,-1.128528 0.578921,-3.378258 0,-2.257058 -0.578921,-3.378258 -0.571592,-1.128529 -1.722105,-1.128529 z m 0,-1.172498 q 1.839355,0 2.806665,1.458294 0.974639,1.450966 0.974639,4.220991 0,2.762697 -0.974639,4.220991 -0.96731,1.450966 -2.806665,1.450966 -1.839356,0 -2.813994,-1.450966 -0.967311,-1.458294 -0.967311,-4.220991 0,-2.770025 0.967311,-4.220991 0.974638,-1.458294 2.813994,-1.458294 z"
         style=""
         id="path3471" />
      <path
         d="m 41.094826,45.044499 2.418276,0 0,-8.346717 -2.630792,0.527624 0,-1.348372 2.616135,-0.527624 1.480279,0 0,9.695089 2.418276,0 0,1.245778 -6.302174,0 0,-1.245778 z"
         style=""
         id="path3473" />
      <path
         d="m 52.039131,36.324049 q -1.143185,0 -1.722106,1.128529 -0.571593,1.1212 -0.571593,3.378258 0,2.24973 0.571593,3.378258 0.578921,1.121201 1.722106,1.121201 1.150513,0 1.722105,-1.121201 0.578921,-1.128528 0.578921,-3.378258 0,-2.257058 -0.578921,-3.378258 -0.571592,-1.128529 -1.722105,-1.128529 z m 0,-1.172498 q 1.839355,0 2.806666,1.458294 0.974638,1.450966 0.974638,4.220991 0,2.762697 -0.974638,4.220991 -0.967311,1.450966 -2.806666,1.450966 -1.839356,0 -2.813994,-1.450966 -0.967311,-1.458294 -0.967311,-4.220991 0,-2.770025 0.967311,-4.220991 0.974638,-1.458294 2.813994,-1.458294 z"
         style=""
         id="path3475" />
      <path
         d="m 60.074176,36.324049 q -1.143185,0 -1.722105,1.128529 -0.571593,1.1212 -0.571593,3.378258 0,2.24973 0.571593,3.378258 0.57892,1.121201 1.722105,1.121201 1.150513,0 1.722106,-1.121201 0.578921,-1.128528 0.578921,-3.378258 0,-2.257058 -0.578921,-3.378258 -0.571593,-1.128529 -1.722106,-1.128529 z m 0,-1.172498 q 1.839356,0 2.806666,1.458294 0.974639,1.450966 0.974639,4.220991 0,2.762697 -0.974639,4.220991 -0.96731,1.450966 -2.806666,1.450966 -1.839355,0 -2.813994,-1.450966 -0.96731,-1.458294 -0.96731,-4.220991 0,-2.770025 0.96731,-4.220991 0.974639,-1.458294 2.813994,-1.458294 z"
         style=""
         id="path3477" />
      <path
         d="m 3.8288454,53.883371 q -1.143185,0 -1.7221057,1.128528 -0.5715925,1.121201 -0.5715925,3.378259 0,2.249729 0.5715925,3.378258 0.5789207,1.121201 1.7221057,1.121201 1.1505132,0 1.7221057,-1.121201 0.5789207,-1.128529 0.5789207,-3.378258 0,-2.257058 -0.5789207,-3.378259 -0.5715925,-1.128528 -1.7221057,-1.128528 z m 0,-1.172498 q 1.8393555,0 2.8066659,1.458294 0.9746386,1.450965 0.9746386,4.220991 0,2.762697 -0.9746386,4.220991 -0.9673104,1.450965 -2.8066659,1.450965 -1.8393554,0 -2.8139939,-1.450965 -0.96731048,-1.458294 -0.96731048,-4.220991 0,-2.770026 0.96731048,-4.220991 0.9746385,-1.458294 2.8139939,-1.458294 z"
         style=""
         id="path3479" />
      <path
         d="m 8.9546336,62.603821 2.4182764,0 0,-8.346717 -2.6307916,0.527624 0,-1.348372 2.6161346,-0.527624 1.480279,0 0,9.695089 2.418276,0 0,1.245778 -6.3021744,0 0,-1.245778 z"
         style=""
         id="path3481" />
      <path
         d="m 16.989681,62.603821 2.418276,0 0,-8.346717 -2.630791,0.527624 0,-1.348372 2.616135,-0.527624 1.480278,0 0,9.695089 2.418276,0 0,1.245778 -6.302174,0 0,-1.245778 z"
         style=""
         id="path3483" />
      <path
         d="m 27.933988,53.883371 q -1.143185,0 -1.722106,1.128528 -0.571592,1.121201 -0.571592,3.378259 0,2.249729 0.571592,3.378258 0.578921,1.121201 1.722106,1.121201 1.150513,0 1.722106,-1.121201 0.57892,-1.128529 0.57892,-3.378258 0,-2.257058 -0.57892,-3.378259 -0.571593,-1.128528 -1.722106,-1.128528 z m 0,-1.172498 q 1.839355,0 2.806666,1.458294 0.974638,1.450965 0.974638,4.220991 0,2.762697 -0.974638,4.220991 -0.967311,1.450965 -2.806666,1.450965 -1.839355,0 -2.813994,-1.450965 -0.96731,-1.458294 -0.96731,-4.220991 0,-2.770026 0.96731,-4.220991 0.974639,-1.458294 2.813994,-1.458294 z"
         style=""
         id="path3485" />
      <path
         d="m 35.969036,53.883371 q -1.143185,0 -1.722106,1.128528 -0.571593,1.121201 -0.571593,3.378259 0,2.249729 0.571593,3.378258 0.578921,1.121201 1.722106,1.121201 1.150513,0 1.722105,-1.121201 0.578921,-1.128529 0.578921,-3.378258 0,-2.257058 -0.578921,-3.378259 -0.571592,-1.128528 -1.722105,-1.128528 z m 0,-1.172498 q 1.839355,0 2.806665,1.458294 0.974639,1.450965 0.974639,4.220991 0,2.762697 -0.974639,4.220991 -0.96731,1.450965 -2.806665,1.450965 -1.839356,0 -2.813994,-1.450965 -0.967311,-1.458294 -0.967311,-4.220991 0,-2.770026 0.967311,-4.220991 0.974638,-1.458294 2.813994,-1.458294 z"
         style=""
         id="path3487" />
      <path
         d="m 41.094826,62.603821 2.418276,0 0,-8.346717 -2.630792,0.527624 0,-1.348372 2.616135,-0.527624 1.480279,0 0,9.695089 2.418276,0 0,1.245778 -6.302174,0 0,-1.245778 z"
         style=""
         id="path3489" />
      <path
         d="m 52.039131,53.883371 q -1.143185,0 -1.722106,1.128528 -0.571593,1.121201 -0.571593,3.378259 0,2.249729 0.571593,3.378258 0.578921,1.121201 1.722106,1.121201 1.150513,0 1.722105,-1.121201 0.578921,-1.128529 0.578921,-3.378258 0,-2.257058 -0.578921,-3.378259 -0.571592,-1.128528 -1.722105,-1.128528 z m 0,-1.172498 q 1.839355,0 2.806666,1.458294 0.974638,1.450965 0.974638,4.220991 0,2.762697 -0.974638,4.220991 -0.967311,1.450965 -2.806666,1.450965 -1.839356,0 -2.813994,-1.450965 -0.967311,-1.458294 -0.967311,-4.220991 0,-2.770026 0.967311,-4.220991 0.974638,-1.458294 2.813994,-1.458294 z"
         style=""
         id="path3491" />
      <path
         d="m 57.164917,62.603821 2.418276,0 0,-8.346717 -2.630791,0.527624 0,-1.348372 2.616135,-0.527624 1.480278,0 0,9.695089 2.418276,0 0,1.245778 -6.302174,0 0,-1.245778 z"
         style=""
         id="path3493" />
    </g>
  </g>
</svg>
