<?xml version="1.0" encoding="UTF-8" standalone="no"?>
<!-- Created with Inkscape (http://www.inkscape.org/) -->

<svg
   xmlns:dc="http://purl.org/dc/elements/1.1/"
   xmlns:cc="http://creativecommons.org/ns#"
   xmlns:rdf="http://www.w3.org/1999/02/22-rdf-syntax-ns#"
   xmlns:svg="http://www.w3.org/2000/svg"
   xmlns="http://www.w3.org/2000/svg"
   xmlns:sodipodi="http://sodipodi.sourceforge.net/DTD/sodipodi-0.dtd"
   xmlns:inkscape="http://www.inkscape.org/namespaces/inkscape"
   width="64"
   height="64"
   id="svg3352"
   version="1.1"
   inkscape:version="0.91 r13725"
   viewBox="0 0 64 64"
   sodipodi:docname="WriteIco1.svg">
  <defs
     id="defs3354" />
  <sodipodi:namedview
     id="base"
     pagecolor="#ffffff"
     bordercolor="#666666"
     borderopacity="1.0"
     inkscape:pageopacity="0.0"
     inkscape:pageshadow="2"
     inkscape:zoom="8.33"
     inkscape:cx="41.440141"
     inkscape:cy="27.322738"
     inkscape:current-layer="layer1"
     showgrid="true"
     inkscape:document-units="px"
     inkscape:grid-bbox="true"
     inkscape:showpageshadow="false"
     inkscape:window-width="1366"
     inkscape:window-height="747"
     inkscape:window-x="0"
     inkscape:window-y="21"
     inkscape:window-maximized="1">
    <inkscape:grid
       type="xygrid"
       id="grid3360"
       spacingx="0.8"
       spacingy="0.8" />
  </sodipodi:namedview>
  <metadata
     id="metadata3357">
    <rdf:RDF>
      <cc:Work
         rdf:about="">
        <dc:format>image/svg+xml</dc:format>
        <dc:type
           rdf:resource="http://purl.org/dc/dcmitype/StillImage" />
        <dc:title></dc:title>
      </cc:Work>
    </rdf:RDF>
  </metadata>
  <g
     id="layer1"
     inkscape:label="Layer 1"
     inkscape:groupmode="layer">
    <path
       style="opacity:1;fill:#99cc33"
       d="M 60.905177,63.265306 2.441792,64 l 59.150864,0 0,-64 z M 24.909782,4.9726562 c 2.904263,2.7506524 8.295681,2.7179769 11.886429,0.8843075 2.218283,-1.5140592 1.563913,1.9286309 2.580349,0.2170806 2.377847,-0.6113351 4.869359,0.8812072 7.295152,-0.2814531 3.637099,-0.6693198 6.284293,1.836703 9.385462,0.6182426 C 54.987567,7.4606742 50.516738,8.4275524 51.332725,7.4800127 48.054171,6.8583683 44.566682,6.1452002 41.308794,7.6387445 39.306677,8.4264353 40.611106,5.5164818 38.999063,7.1346965 38.146429,7.9016871 36.063478,7.821587 36.912831,6.4991626 33.13676,8.8403773 28.537387,7.7717475 24.430566,7.1778104 20.175948,7.138909 16.21342,8.5388265 12.48483,6.990266 10.939154,7.1664146 5.6367553,7.7916096 9.4511422,6.0690683 12.829027,5.1660658 16.235532,7.1716797 19.770428,6.9173974 21.432616,6.1769368 23.445764,6.0375224 24.909782,4.9726562 Z M 14.331656,10.164062 c -1.368618,1.722521 1.645748,1.92537 2.644348,2.557588 3.033756,0.182814 6.370368,0.0203 9.615553,-0.164399 3.560537,-0.85496 6.92915,-0.48689 10.423488,-0.233938 1.430545,1.351871 4.874095,-1.586374 6.42636,0.867013 2.696676,0.137135 5.35514,-2.529472 7.710359,-1.142549 1.955963,-1.231387 9.660373,0.309912 5.363283,1.667818 -2.397166,1.159474 -2.813597,-2.114944 -5.240424,-0.228953 -3.384647,-1.427502 -7.43608,1.707231 -11.194434,0.29671 -3.292385,-0.02281 -7.157505,-0.586783 -10.687297,-0.202766 -5.246864,0.245977 -10.506222,0.29896 -15.740541,-0.104818 -1.615401,-0.509639 -5.1978055,1.739362 -5.5661914,0.234359 2.2953314,-0.53254 3.9402294,-1.269255 4.9683564,-3.19298 l 0.552178,-0.260434 z m 34.521514,6.943414 c -0.308991,2.280326 3.452167,-0.127084 5.0825,0.981458 1.334579,-0.09739 4.846719,-0.706047 1.911584,0.578438 -4.010564,0.133535 -8.269352,1.575389 -12.118244,0.344993 -2.921112,0.122513 -5.937819,1.939842 -8.047356,-0.320505 -1.6136,0.690882 -1.323385,0.591895 -1.33368,-0.134953 -4.05552,0.202218 -8.335114,0.08242 -12.020735,1.670698 -3.024773,-0.652396 -6.30305,-1.207537 -9.244078,0.2164 -2.421398,1.625133 -2.442713,-2.668925 -4.8584628,-0.568889 -2.3395066,-0.427409 1.8274628,-1.522709 2.6164678,-1.607358 2.589102,1.383716 6.480349,-0.417504 9.015206,0.133923 0.816141,-1.054538 3.23465,-0.618462 2.20521,0.740717 2.406469,-0.119835 4.344422,-1.802909 6.905473,-1.229978 3.123613,-0.217138 7.57368,-1.029218 9.86504,0.688212 1.707287,-0.734487 3.696059,-0.36318 5.24483,-1.089057 2.313871,0.88932 3.034252,1.209217 4.776245,-0.404099 z m -9.521516,2.689483 c -0.954523,-0.206166 0.324981,0.393181 0,0 z m -23.916916,4.103519 c 0.563273,3.272249 5.880847,-1.244785 7.775932,1.495137 0.743614,0.06235 3.189748,-1.399742 2.465046,-0.04112 2.392979,-1.066407 4.303409,1.054622 7.352455,-0.58845 1.912807,0.348483 4.709356,0.408447 5.962442,0.680074 2.805469,-1.16451 6.209972,1.691474 8.670572,-0.781908 2.658778,0.256523 6.628612,1.187094 8.473215,0.923694 3.391409,0.395719 -1.889604,2.010354 -3.280732,1.261237 -3.415799,0.08623 -5.615791,-1.446629 -8.593627,0.014 -2.543982,-1.249569 -6.035588,0.602767 -8.078098,-0.197671 -2.607301,-1.919825 -6.520613,1.279909 -9.671652,-0.08317 -2.813084,-0.876683 -5.426109,0.228464 -8.130955,-0.974814 -2.285312,1.020063 -4.74862,1.12262 -5.420753,-0.583786 -1.232716,0.604919 -5.6211369,2.84004 -5.7407441,1.378296 1.9682659,-2.189648 5.9996011,-0.62755 8.2168991,-2.501519 z m 29.399731,6.566444 c 1.286829,0.400462 1.66874,2.191982 1.802101,1.934472 2.730335,-1.53756 3.723369,2.917136 6.056266,0.302757 1.467975,-0.556755 0.482454,1.426349 2.490655,0.48013 4.508446,-0.382244 -3.872631,1.905849 -5.508448,1.35921 -3.567817,-1.50627 -7.259456,-0.07695 -10.985747,-0.624385 -2.477705,-1.9775 -6.523107,2.00462 -9.445993,-0.448279 -3.520753,0.323383 -7.04548,0.09711 -10.533385,-0.197515 -2.786946,0.558335 -5.83911,1.045131 -7.927562,-0.01666 -0.9987749,0.273041 -4.3442718,1.916845 -1.8847921,0.08477 1.0824448,-2.692678 3.4871161,-1.528185 5.6088441,-0.779911 2.069128,0.28601 4.508376,-0.720886 7.255037,-0.422012 2.682423,1.060646 5.267266,-0.487618 8.022021,-0.159074 2.389878,1.18928 4.73176,1.198372 6.714426,-0.353639 1.24934,1.042133 6.297,-0.643824 3.679266,1.566437 1.625024,-0.830072 2.927336,-2.030773 4.657311,-2.726301 z m -25.66429,6.374872 c -1.469532,1.150646 0.03451,1.607114 0.88541,1.268565 2.218648,1.667785 5.857281,-0.230706 7.802214,0.649118 -0.91245,1.466467 2.421311,-1.501145 3.61611,-0.292346 3.283213,0.341872 6.514889,-0.244787 9.763246,-0.186177 3.282143,-0.142275 6.542946,-0.01007 9.801356,-0.240679 1.950675,0.322143 1.292268,2.227729 3.115275,0.517796 4.382778,-0.587806 -0.34934,3.022323 -2.586428,1.675613 -3.519594,-1.67451 -7.307392,0.0049 -10.997303,-0.365277 -3.132651,-1.335136 -5.752251,0.362354 -9.041554,0.32945 -2.587537,0.387751 -3.938493,-1.099581 -6.524002,-0.0328 -2.956233,-0.119202 -6.390396,-0.206864 -9.173676,0.02188 -2.987058,0.733204 -5.17335,-0.397414 -7.856367,0.207786 0.6768885,-1.315501 4.33546,-3.090123 4.693545,-0.817733 2.093855,-1.668576 3.528287,0.06298 4.571545,-1.952709 0.539712,-0.394839 1.202621,-0.699656 1.930629,-0.782487 z m 13.991029,7.08397 c 0.02183,2.139339 4.641565,-0.189399 5.248713,1.035557 1.789366,-0.361198 3.47957,1.028249 5.237413,-0.04422 1.091435,1.785642 4.280764,-1.606832 5.501356,0.794613 1.960749,-1.570113 5.08223,-0.457482 7.039795,-0.09495 -2.685872,1.42966 -6.180142,-0.01269 -9.096881,0.90145 -0.601645,-1.806726 -4.565732,1.056147 -6.163909,-0.20623 -3.305118,0.193921 -6.541144,-0.725165 -9.862661,-0.282351 -2.161154,-0.06302 -4.792234,0.64563 -5.536581,0.02109 -2.270547,1.674525 -4.319707,-0.840174 -6.991773,0.820787 -3.008864,1.522602 -4.08292,-2.558645 -7.146177,-0.423518 -1.8555267,1.407826 -5.9277476,-0.877225 -1.9545106,-1.434279 2.6128356,0.644589 6.3003016,-0.781163 9.2691976,0.87875 2.45122,-0.812548 7.181909,-0.465862 9.063622,-0.59131 1.151168,1.684455 3.850087,-1.388874 5.392396,-1.375389 z m 20.679664,4.875137 c -0.03412,1.50463 4.222385,0.629913 1.137497,1.778994 -2.191227,0.720498 -2.802116,-1.059656 -3.968872,0.318797 -2.207173,0.714756 0.174729,-1.183735 -2.139144,-0.05965 -4.735869,0.525404 -9.519483,0.971165 -14.283675,1.018513 -4.148526,-0.32197 -7.86371,0.148051 -11.820177,0.293579 -2.459306,-0.870626 -4.61546,-0.552483 -6.937476,-0.06729 -0.465274,-2.31909 -3.372781,2.163499 -5.083383,0.22774 -3.2650555,1.204159 -2.8091062,-1.251197 0.217008,-0.961106 2.237438,-1.278108 5.149705,-1.625346 6.9444,-0.522739 1.073897,-2.429869 5.747832,-1.479184 4.880409,0.01898 2.26655,-0.491366 4.724925,0.752378 6.993236,0.0079 3.669548,-0.271369 7.353845,0.113027 10.892121,-0.716486 4.915359,0.263861 9.149897,0.332136 13.168056,-1.337232 z m -7.066479,6.443245 c -0.221578,1.107599 -0.649321,2.159494 0.962332,0.993134 0.303407,2.282109 1.463117,-0.667888 2.62746,1.000939 1.176369,1.646788 6.3057,-1.83694 6.337994,0.373293 -2.82196,1.616395 -6.632947,0.837266 -9.887446,0.85609 -6.006922,0.06299 -12.030647,0.495508 -18.030517,-0.09075 -1.918523,-2.016724 -4.669214,2.090397 -5.927185,-0.02243 -3.459364,0.708429 -5.694745,-0.05287 -9.254294,0.776881 -1.692867,-0.244879 -3.558339,-0.625452 -4.9059631,-0.321974 1.8133291,-2.299341 5.0244371,-1.02444 7.6682001,-1.344011 3.473459,-0.738762 7.032194,0.926943 10.346882,-0.348424 2.106538,-0.796172 3.641175,0.693823 5.403532,0.02086 0.147997,1.081858 3.985653,-2.049317 4.753613,0.635131 2.304415,-1.525935 5.068728,-0.521803 7.231396,-0.515237 1.03027,-0.555447 1.347908,-1.779807 2.673996,-2.013502 z"
       id="rect3362"
       inkscape:connector-curvature="0"
       sodipodi:nodetypes="ccccccccccccccccccccccccccccccccccccccccccccccccccccccccccccccccccccccccccccccccccccccccccccccccccccccccccccccccccccccccccccccccccccccccccccccc" />
  </g>
</svg>
