<?xml version="1.0" encoding="UTF-8" standalone="no"?>
<!-- Created with Inkscape (http://www.inkscape.org/) -->

<svg
   xmlns:dc="http://purl.org/dc/elements/1.1/"
   xmlns:cc="http://creativecommons.org/ns#"
   xmlns:rdf="http://www.w3.org/1999/02/22-rdf-syntax-ns#"
   xmlns:svg="http://www.w3.org/2000/svg"
   xmlns="http://www.w3.org/2000/svg"
   xmlns:sodipodi="http://sodipodi.sourceforge.net/DTD/sodipodi-0.dtd"
   xmlns:inkscape="http://www.inkscape.org/namespaces/inkscape"
   width="64"
   height="64"
   id="svg3352"
   version="1.1"
   inkscape:version="0.91 r13725"
   viewBox="0 0 64 64"
   sodipodi:docname="WriteIco.svg">
  <defs
     id="defs3354" />
  <sodipodi:namedview
     id="base"
     pagecolor="#ffffff"
     bordercolor="#666666"
     borderopacity="1.0"
     inkscape:pageopacity="0.0"
     inkscape:pageshadow="2"
     inkscape:zoom="8.33"
     inkscape:cx="31.8363"
     inkscape:cy="31.784122"
     inkscape:current-layer="layer1"
     showgrid="true"
     inkscape:document-units="px"
     inkscape:grid-bbox="true"
     inkscape:showpageshadow="false"
     inkscape:window-width="1366"
     inkscape:window-height="747"
     inkscape:window-x="0"
     inkscape:window-y="21"
     inkscape:window-maximized="1">
    <inkscape:grid
       type="xygrid"
       id="grid3360"
       spacingx="0.8"
       spacingy="0.8" />
  </sodipodi:namedview>
  <metadata
     id="metadata3357">
    <rdf:RDF>
      <cc:Work
         rdf:about="">
        <dc:format>image/svg+xml</dc:format>
        <dc:type
           rdf:resource="http://purl.org/dc/dcmitype/StillImage" />
        <dc:title></dc:title>
      </cc:Work>
    </rdf:RDF>
  </metadata>
  <g
     id="layer1"
     inkscape:label="Layer 1"
     inkscape:groupmode="layer">
    <path
       style="opacity:1;fill:#99cc33"
       d="M 23.241818,0.17073543 C 21.548568,1.4244337 19.218737,1.5892431 17.296286,2.4610091 13.207905,2.7603831 9.2690921,0.39760763 5.362306,1.4607391 0.95067224,3.4887374 7.0827457,2.7534745 8.8704405,2.5460896 13.182843,4.3692554 17.765325,2.721039 22.686119,2.7668388 27.435976,3.4660984 32.755687,4.725303 37.123005,1.9689222 36.140663,3.5258513 38.551676,3.619251 39.537814,2.7162503 41.402265,0.81107857 39.892278,4.2368856 42.20788,3.3095141 45.97588,1.5511205 50.00886,2.3913767 53.800761,3.1232569 52.85701,4.2388233 58.028055,3.0991544 59.265138,1.8631464 55.678396,3.2976757 52.617517,0.34850359 48.41093,1.1365135 45.605313,2.5053477 42.723954,0.74789467 39.973789,1.4676374 38.798201,3.4826959 39.555344,-0.5701503 36.989728,1.2123961 32.83675,3.371229 26.600823,3.4091593 23.241818,0.17073543 Z M 11.007398,6.2827301 10.169331,6.3908054 9.5300516,6.6989349 c -1.1891092,2.2648579 -3.0920161,3.132661 -5.7467449,3.7596371 0.4260668,1.771884 4.569644,-0.87595 6.4379803,-0.275938 6.053895,0.475381 12.136394,0.411468 18.204799,0.121873 4.082478,-0.4521158 8.553023,0.212289 12.360921,0.239144 4.346828,1.660647 9.033639,-2.0301596 12.948246,-0.34952 2.806813,-2.2204322 3.288228,1.634121 6.060736,0.269039 C 64.765906,8.8644674 55.855162,7.0496729 53.59294,8.4994212 50.868947,6.8665559 47.793558,10.006065 44.674643,9.8446119 42.879328,6.9561671 38.897267,10.417543 37.242729,8.8259465 33.201257,8.5281387 29.304802,8.0930141 25.186767,9.0995836 21.433459,9.3170353 17.574777,9.507971 14.066001,9.2927387 12.911045,8.5484099 9.4244846,8.3107058 11.007398,6.2827301 Z m 39.926769,8.1746209 c -2.014749,1.899404 -2.849197,1.523014 -5.525368,0.475993 -1.791274,0.854596 -4.090646,0.41837 -6.065255,1.283103 -2.650135,-2.021982 -7.797206,-1.067357 -11.409907,-0.811713 -2.962054,-0.674528 -5.202086,1.307581 -7.985354,1.448668 1.190627,-1.600202 -1.608671,-2.113039 -2.552602,-0.8715 -2.931758,-0.649212 -7.4305119,1.470425 -10.4250091,-0.158664 -0.9125455,0.09966 -5.7328008,1.389264 -3.0269803,1.892466 2.7940013,-2.472435 2.8197084,2.582462 5.6202425,0.669144 3.4015279,-1.676441 7.1931819,-1.021025 10.6915639,-0.25294 4.262707,-1.869926 9.210997,-1.730272 13.901519,-1.968348 0.0119,0.855739 -0.323396,0.972058 1.542857,0.158662 1.095586,1.194973 2.408429,1.401916 3.822127,1.276208 0.0015,-0.0084 0.0482,-6.99e-4 0.06551,-0.0045 1.716602,-0.165374 3.581332,-0.81603 5.419197,-0.894493 4.451542,1.44858 9.378197,-0.247493 14.016724,-0.404707 3.394711,-1.512264 -0.667957,-0.795305 -2.211502,-0.680644 -1.885606,-1.30512 -6.235134,1.528061 -5.877762,-1.156634 z m -38.675316,7.997563 c -2.5644762,2.206279 -7.2269102,0.367687 -9.5033621,2.945623 0.138335,1.720954 5.2155529,-0.911238 6.6412845,-1.623426 0.7773736,2.009001 3.6254186,1.888491 6.2685596,0.687541 3.128363,1.416654 6.150417,0.115291 9.403968,1.147435 3.64442,1.604793 8.170726,-2.161387 11.186271,0.09887 2.362322,0.942379 6.400665,-1.238908 9.342977,0.232245 3.444098,-1.719641 5.988702,0.08542 9.939338,-0.01609 1.608947,0.881957 7.717447,-1.019566 3.795018,-1.485458 -2.133426,0.310108 -6.726457,-0.785637 -9.801541,-1.087651 -2.845874,2.911987 -6.782693,-0.451221 -10.027435,0.919788 -1.449291,-0.319792 -4.684234,-0.389936 -6.896545,-0.800215 -3.526458,1.934436 -5.734985,-0.561073 -8.50265,0.69444 0.838174,-1.599544 -1.990736,0.121695 -2.850784,0.04828 -2.191812,-3.22579 -8.34363,2.09112 -8.995099,-1.761395 z m 34.003827,7.730823 c -2.00085,0.818865 -3.508106,2.232793 -5.387572,3.210061 3.027612,-2.602206 -2.808626,-0.617241 -4.253584,-1.844175 -2.293107,1.827227 -5.002158,1.816378 -7.766238,0.416205 -3.186086,-0.386806 -6.175036,1.434985 -9.277466,0.186256 -3.176728,-0.351873 -5.998858,0.833414 -8.391965,0.496687 -2.4539422,-0.880967 -5.2357447,-2.250381 -6.4876755,0.919788 -2.8445787,2.156956 1.0247168,0.220282 2.1798772,-0.101178 2.4154567,1.250078 5.9457193,0.678039 9.1690393,0.0207 4.034031,0.34687 8.110441,0.612974 12.182463,0.232245 3.380545,2.887871 8.060837,-1.79929 10.926494,0.528879 4.309745,0.644512 8.577824,-1.039845 12.704281,0.733532 1.891949,0.643574 11.586837,-2.050459 6.37247,-1.600432 -2.322639,1.114011 -1.18458,-1.218856 -2.882407,-0.563372 -2.698176,3.077985 -3.84487,-2.166631 -7.002714,-0.356417 -0.154243,0.303174 -0.596685,-1.8073 -2.085003,-2.278776 z m -29.682474,7.505474 c -0.841997,0.09753 -1.609875,0.457233 -2.234092,0.922089 -1.206609,2.373129 -2.864216,0.332707 -5.2859204,2.297172 -0.4141541,-2.675353 -4.64536,-0.585299 -5.4282339,0.963477 3.1031165,-0.71252 5.6306936,0.61948 9.0854583,-0.243742 3.219078,-0.269307 7.19113,-0.165634 10.610242,-0.0253 2.990341,-1.255952 4.552173,0.493303 7.544859,0.03679 3.804336,0.03874 6.835741,-1.958206 10.458895,-0.386312 4.267668,0.435821 8.64715,-1.541448 12.717834,0.43 2.587365,1.585523 8.062117,-2.664987 2.993096,-1.972945 -2.10845,2.013155 -1.349162,-0.230091 -3.60527,-0.609359 -3.768603,0.271502 -7.539309,0.11533 -11.335362,0.282835 -3.756976,-0.06901 -7.495152,0.620945 -11.292442,0.218448 -1.381878,-1.423154 -5.236617,2.071436 -4.181298,0.344922 -2.249465,-1.035842 -6.458429,1.200107 -9.024467,-0.763425 -0.984132,0.398583 -2.722928,-0.139968 -1.023299,-1.494657 z m 16.180788,8.340183 c -1.7838,-0.01588 -4.905518,3.601987 -6.236933,1.618828 -2.176348,0.147694 -7.646457,-0.259897 -10.481484,0.696741 C 12.608818,46.392698 8.3435914,48.071094 5.3216449,47.3122 c -4.595356,0.655837 0.1151386,3.345288 2.2611997,1.687813 3.5428934,-2.513748 4.7854784,2.29159 8.2654614,0.498986 3.090452,-1.9555 5.458684,1.005688 8.084747,-0.96578 0.860896,0.73529 3.904554,-0.09949 6.404097,-0.02529 3.84159,-0.521338 7.585023,0.561732 11.407648,0.333423 1.848416,1.486235 6.433367,-1.885666 7.129216,0.241444 3.373434,-1.076243 7.413466,0.623125 10.519885,-1.060054 -2.264076,-0.426821 -5.873464,-1.738167 -8.141222,0.110372 -1.411709,-2.827291 -5.101105,1.168705 -6.363435,-0.933585 -2.033081,1.262649 -3.986678,-0.374662 -6.056219,0.05059 -0.702212,-1.442177 -6.046783,1.299988 -6.072031,-1.218721 z m 23.91766,5.73948 c -4.647312,1.965397 -9.544782,1.88579 -15.229775,1.575139 -4.092291,0.976611 -8.353994,0.524416 -12.59811,0.843906 -2.623478,0.876497 -5.465566,-0.587698 -8.087007,-0.0092 1.003242,-1.763832 -4.403046,-2.88375 -5.645091,-0.02301 -2.075703,-1.298133 -5.4427629,-0.890797 -8.0305332,0.613958 -3.4999348,-0.341533 -4.0270313,2.551332 -0.250742,1.133639 1.9784447,2.279025 5.3396382,-2.999372 5.8777632,-0.26904 2.685591,-0.571231 5.179378,-0.946829 8.023756,0.07818 4.57596,-0.171335 8.873014,-0.723986 13.671105,-0.344921 5.510157,-0.05575 11.042232,-0.579452 16.51963,-1.198024 2.676174,-1.323421 -0.07698,0.910486 2.4758,0.06898 1.349444,-1.622893 2.055842,0.473449 4.590165,-0.374815 3.567912,-1.352847 -1.356424,-0.323373 -1.316961,-2.094819 z m -8.172846,7.585958 c -1.533724,0.275136 -1.900903,1.71681 -3.09249,2.370754 -2.501292,-0.0077 -5.697363,-1.189467 -8.362597,0.607061 -0.888205,-3.160481 -5.327089,0.526375 -5.49826,-0.747328 -2.038303,0.7923 -3.814113,-0.962651 -6.250487,-0.02529 -3.833693,1.501527 -7.948283,-0.460461 -11.965607,0.409305 -3.057717,0.376241 -6.7713439,-1.125045 -8.8685994,1.582036 1.5586306,-0.357292 3.7142673,0.0911 5.6721994,0.379413 4.116893,-0.976889 6.704096,-0.08115 10.705118,-0.915189 1.45494,2.487495 4.634704,-2.346755 6.853625,0.02758 6.939314,0.690219 13.907065,0.179935 20.854536,0.105774 3.764081,-0.02216 8.17094,0.895859 11.434756,-1.007168 -0.03734,-2.602173 -5.9697,1.499611 -7.330262,-0.4392 -1.346653,-1.96476 -2.687361,1.507165 -3.038274,-1.179629 -1.864001,1.373191 -1.369931,0.135878 -1.113658,-1.168131 z"
       id="rect3420"
       inkscape:connector-curvature="0" />
  </g>
</svg>
